<svg xmlns="http://www.w3.org/2000/svg" width="21" height="22" viewBox="0 0 21 22"><defs><style>.a{fill:#f0f0f0;}</style></defs><g transform="translate(-961 -321)"><path class="a" d="M11.607,14.286l2.143-1.964a.656.656,0,0,1,.536-.179l.357.179,5,2.321c.357.179.357.357.357.714a4.527,4.527,0,0,1-1.429,3.214A5.115,5.115,0,0,1,14.821,20a10.88,10.88,0,0,1-5-1.25,23.409,23.409,0,0,1-5-3.571A30.416,30.416,0,0,1,2.143,11.25,24.683,24.683,0,0,1,.357,7.321,10.989,10.989,0,0,1,0,3.929,4.692,4.692,0,0,1,1.25,1.25,5.431,5.431,0,0,1,4.643,0a.928.928,0,0,1,.714.357l2.679,5a.623.623,0,0,0,.179.357.656.656,0,0,1-.179.536L5.714,8.393a.8.8,0,0,0,0,.893,17.053,17.053,0,0,0,2.143,2.857,18.03,18.03,0,0,0,2.857,2.321C11.071,14.643,11.429,14.643,11.607,14.286Z" transform="translate(961 323)"/><path class="a" d="M374.772,355.2V354l-2.629,1.913,2.629,1.913v-1.064a3.464,3.464,0,1,1-4.2,3.632c-.006-.082-.009-.166-.009-.249h-1.536c0,.119,0,.239.013.358a5,5,0,1,0,5.734-5.3Z" transform="translate(602.974 -33)"/></g></svg>