<svg id="레이어_1" data-name="레이어 1" xmlns="http://www.w3.org/2000/svg" viewBox="0 0 16 16"><defs><style>.cls-1{fill:none;}.cls-2{fill:#fff;}</style></defs><rect class="cls-1" width="16" height="16"/><path class="cls-2" d="M11,1.41a.77.77,0,0,1,.48.2.72.72,0,0,1,.29.6v7.5a.74.74,0,0,1-.19.5,1,1,0,0,1-.58.2H1a1,1,0,0,1-.58-.2,1.13,1.13,0,0,1-.2-.6V2.21a.85.85,0,0,1,.2-.5A.7.7,0,0,1,1,1.41ZM3.47,3.21a1.15,1.15,0,0,0-1.55,0,1.13,1.13,0,0,0-.29.8,1.1,1.1,0,0,0,.29.8,1.07,1.07,0,0,0,.77.3,1.08,1.08,0,0,0,.78-.3A1.14,1.14,0,0,0,3.76,4,1.18,1.18,0,0,0,3.47,3.21Zm6.88,5.7L7.44,4.41,4.83,7.91,3.08,6.61,1.63,8.91Z" transform="translate(1.5 2)"/></svg>