<svg xmlns="http://www.w3.org/2000/svg" width="20" height="20" viewBox="0 0 20 20"><defs><style>.a{fill:#8ca6c4;}</style></defs><path class="a" d="M10,0A10,10,0,1,0,20,10,10.029,10.029,0,0,0,10,0ZM9.9,16.6a1.4,1.4,0,1,1,1.4-1.4A1.367,1.367,0,0,1,9.9,16.6Zm2.7-7.8L11.5,10a1.222,1.222,0,0,0-.4.9,1.216,1.216,0,0,1-1.2,1.2,1.155,1.155,0,0,1-1.2-1.2,2.232,2.232,0,0,1,.8-1.8L10.4,8a2.27,2.27,0,0,0,.7-1.4A1.049,1.049,0,0,0,10,5.5a1.176,1.176,0,0,0-1.2.9,1.306,1.306,0,0,1-1.2.7A1.049,1.049,0,0,1,6.5,6a1.087,1.087,0,0,1,.1-.5A3.333,3.333,0,0,1,10,3.4a3.24,3.24,0,0,1,3.5,3.2A3.281,3.281,0,0,1,12.6,8.8Z"/></svg>
