<svg xmlns="http://www.w3.org/2000/svg" width="19.2" height="20" viewBox="0 0 19.2 20"><defs><style>.a{fill:#8ca6c4;fill-rule:evenodd;}</style></defs><path class="a" d="M269.474,12.5a2.5,2.5,0,1,0-2.526-2.5A2.521,2.521,0,0,0,269.474,12.5Zm-5.179-8a7.147,7.147,0,0,1,3.032-1.625L268.337,0h2.526l1.01,2.875A8.85,8.85,0,0,1,274.905,4.5l3.032-.625,1.263,2.25-2.021,2.25A7.055,7.055,0,0,1,277.305,10c0,.5-.126,1.125-.126,1.625l2.021,2.25-1.263,2.25-3.032-.625a7.147,7.147,0,0,1-3.032,1.625L270.863,20h-2.526l-1.011-2.875a8.85,8.85,0,0,1-3.032-1.625l-3.032.625L260,13.875l2.021-2.25A7.055,7.055,0,0,1,261.895,10c0-.5.126-1.125.126-1.625L260,6.125l1.263-2.25Z" transform="translate(-260)"/></svg>
