<svg xmlns="http://www.w3.org/2000/svg" width="35" height="40.123" viewBox="0 0 35 40.123"><defs><style>.a{opacity:0.5;}.b{fill:#fff;}</style></defs><g class="a"><path class="b" d="M409.992,89.88a.6.6,0,0,1-.174-.421V84.706a.6.6,0,0,0-.6-.6h-5l-.553-.553v-5a.6.6,0,0,0-.6-.6h-4.958a.6.6,0,0,0-.6.6v5l-.554.554h-3.221a.6.6,0,0,0-.6.6v3.18a.6.6,0,0,0,.6.6h3.18a.6.6,0,0,0,.6-.6V84.664l.553-.554h5.042l.554.554v5a.6.6,0,0,0,.6.6h4.752a.594.594,0,0,1,.421.175l1.134,1.134a12.075,12.075,0,1,1,.386-11.727H417.3a17.935,17.935,0,1,0-27.913,19.8l-.036,0,10.881,7.92v-4.244A17.935,17.935,0,0,0,417.3,90.905h-6.284Z" transform="translate(-382.301 -67.433)"/></g></svg>
