<svg xmlns="http://www.w3.org/2000/svg" width="220" height="60.881" viewBox="0 0 220 60.881"><defs><style>.a{fill:#3cab90;}.b{fill:#323d49;}</style></defs><g transform="translate(-144.733 -425.441)"><g transform="translate(144.733 425.441)"><g transform="translate(0 0)"><path class="a" d="M186.751,459.5a.9.9,0,0,1-.265-.639v-7.212a.9.9,0,0,0-.9-.9H178l-.839-.839v-7.587a.9.9,0,0,0-.9-.9h-7.522a.9.9,0,0,0-.9.9v7.586l-.84.84H162.1a.9.9,0,0,0-.9.9v4.823a.9.9,0,0,0,.9.9h4.824a.9.9,0,0,0,.9-.9v-4.888l.839-.839h7.649l.84.84v7.586a.9.9,0,0,0,.9.9h7.211a.9.9,0,0,1,.639.265l1.721,1.72a18.322,18.322,0,1,1,.585-17.794h9.623a27.213,27.213,0,1,0-42.353,30.041l-.054,0,16.51,12.018v-6.44a27.211,27.211,0,0,0,25.9-18.826h-9.534Z" transform="translate(-144.733 -425.441)"/></g></g><g transform="translate(207.778 442.369)"><path class="b" d="M248.852,455.424v5.2h6.662v18.44h5.9v-18.44h6.663v-5.2Z" transform="translate(-248.852 -454.197)"/><path class="b" d="M296.489,464.262l-.789,1.724-.438-.351a8.486,8.486,0,0,0-5.494-1.958c-5.611,0-9.5,3.945-9.5,9.615a9.249,9.249,0,0,0,9.5,9.643,8.437,8.437,0,0,0,5.406-1.87l.467-.38.673,1.607h4.325v-18.03Zm-5.873,13.793a4.749,4.749,0,1,1,4.675-4.763A4.619,4.619,0,0,1,290.615,478.055Z" transform="translate(-261.246 -457.453)"/><path class="b" d="M322.161,453.4v24.868h5.64V453.4Z" transform="translate(-277.772 -453.398)"/><path class="b" d="M351.648,468.8l5.611-8.563H351l-5.2,8.533V453.4h-5.64v24.868h5.64V469.12l5.436,9.146h6.6Z" transform="translate(-284.874 -453.398)"/><path class="b" d="M390.127,469.325a6.045,6.045,0,0,1-5.874,4.5c-3.74,0-6.458-2.951-6.458-6.984,0-4.062,2.718-7.014,6.458-7.014a6.141,6.141,0,0,1,5.845,4.15h6.02a11.739,11.739,0,0,0-11.865-9.614,12.45,12.45,0,1,0,0,24.9,11.789,11.789,0,0,0,11.952-9.936Z" transform="translate(-297.287 -453.779)"/><path class="b" d="M433.983,470.416l.38-.2a7.478,7.478,0,0,0,3.682-6.546c0-4.851-3.565-8.241-8.679-8.241h-10.2v23.642h5.874v-7.51H428.2l.117.234,3.858,7.276h6.546Zm-5.407-3.682h-3.536v-6.2h3.536a3.1,3.1,0,0,1,3.419,3.1C432,465.506,430.622,466.734,428.577,466.734Z" transform="translate(-316.04 -454.197)"/><path class="b" d="M484.043,455.424h-6.078l-6.108,14-6.078-14H459.7l-3.565,23.642h5.932l2.046-15.225,7.013,15.284h1.432l7.043-15.313,2.045,15.254h5.932Z" transform="translate(-330.624 -454.197)"/></g></g></svg>
