<svg xmlns="http://www.w3.org/2000/svg" width="110" height="17.859" viewBox="0 0 110 17.859"><defs><style>.a{fill:#fff;}</style></defs><g transform="translate(0 0.86)"><path class="a" d="M350.1,114.495v3.646h4.67v12.923h4.137V118.141h4.669v-3.646Z" transform="translate(-350.099 -114.495)"/></g><g transform="translate(13.333 4.363)"><path class="a" d="M373.22,117.992l-.554,1.208-.307-.246a5.949,5.949,0,0,0-3.85-1.371,6.4,6.4,0,0,0-6.656,6.738,6.482,6.482,0,0,0,6.656,6.758,5.915,5.915,0,0,0,3.789-1.31l.328-.267.471,1.126h3.031V117.992Zm-4.116,9.667a3.328,3.328,0,1,1,3.276-3.338A3.237,3.237,0,0,1,369.1,127.659Z" transform="translate(-361.853 -117.583)"/></g><g transform="translate(31.11)"><path class="a" d="M377.525,113.737v17.429h3.953V113.737Z" transform="translate(-377.525 -113.737)"/></g><g transform="translate(38.749)"><path class="a" d="M392.308,124.53l3.933-6h-4.383l-3.646,5.98V113.737H384.26v17.429h3.952v-6.41l3.809,6.41h4.629Z" transform="translate(-384.26 -113.737)"/></g><g transform="translate(52.102 0.409)"><path class="a" d="M408.995,124.584a4.235,4.235,0,0,1-4.116,3.155,4.572,4.572,0,0,1-4.526-4.895c0-2.847,1.9-4.915,4.526-4.915a4.3,4.3,0,0,1,4.1,2.907h4.22a8.226,8.226,0,0,0-8.316-6.738,8.725,8.725,0,1,0,0,17.449,8.262,8.262,0,0,0,8.377-6.964Z" transform="translate(-396.032 -114.098)"/></g><g transform="translate(72.275 0.86)"><path class="a" d="M424.2,125l.267-.144a5.241,5.241,0,0,0,2.581-4.587c0-3.4-2.5-5.776-6.083-5.776h-7.147v16.569h4.116V125.8h2.212l.082.163,2.7,5.1h4.587Zm-3.789-2.581h-2.478v-4.342h2.478a2.182,2.182,0,1,1,0,4.342Z" transform="translate(-413.816 -114.495)"/></g><g transform="translate(87.963 0.86)"><path class="a" d="M447.2,114.495h-4.259l-4.281,9.811-4.259-9.811h-4.26l-2.5,16.569H431.8l1.434-10.67,4.916,10.711h1l4.937-10.732,1.433,10.691h4.158Z" transform="translate(-427.646 -114.495)"/></g></svg>
